<svg width="100" height="53" viewBox="0 0 100 53" fill="none" xmlns="http://www.w3.org/2000/svg">
<g clip-path="url(#clip0_1_40)">
<path d="M84.5591 6.78668H77.9562V19.9699H84.5591V6.78668Z" fill="#009640"/>
<path d="M97.6741 0.195068H91.0712V19.97H97.6741V0.195068Z" fill="#E30613"/>
<path d="M12.6539 21.8749C11.6241 21.8749 10.6851 22.0865 9.83703 22.5401C8.98895 22.9936 8.29231 23.6286 7.71683 24.4752C7.14135 25.3219 6.68702 26.3197 6.35384 27.4989C6.02067 28.6781 5.86922 29.9783 5.86922 31.4297C5.86922 34.3324 6.50529 36.6304 7.74712 38.2935C9.01924 39.9867 10.7154 40.8031 12.8356 40.8031C14.2289 40.8031 15.4707 40.4705 16.5308 39.8053C17.6212 39.1401 18.651 38.1423 19.6203 36.7816L20.8924 37.8097C20.4683 38.6563 19.9534 39.4122 19.3174 40.0774C18.6813 40.7427 17.9847 41.3474 17.1972 41.8614C16.4097 42.3754 15.5616 42.7685 14.6529 43.0407C13.7443 43.3128 12.8356 43.464 11.8967 43.464C10.2914 43.464 8.80722 43.1918 7.50481 42.6476C6.20239 42.1033 5.08171 41.3172 4.17306 40.2891C3.2644 39.2611 2.56776 38.0213 2.08314 36.57C1.59852 35.1186 1.35622 33.4858 1.35622 31.6414C1.35622 29.8876 1.62882 28.3153 2.17401 26.8639C2.71921 25.4126 3.50671 24.1729 4.50623 23.1146C5.50576 22.0563 6.71731 21.2399 8.0803 20.6654C9.47357 20.0909 11.0183 19.7885 12.7447 19.7885C13.7746 19.7885 14.7438 19.9397 15.6827 20.2421C16.5914 20.5444 17.4092 20.9678 18.0755 21.512C18.7419 22.0563 19.2871 22.661 19.7111 23.3867C20.1049 24.1124 20.3169 24.8985 20.3169 25.7452C20.3169 26.5918 20.0746 27.257 19.5597 27.8013C19.0448 28.3455 18.4087 28.5874 17.5909 28.5874C16.652 28.5874 15.8645 28.2851 15.2587 27.6803V22.3284C15.289 22.3284 13.6837 21.8749 12.6539 21.8749Z" fill="#415464"/>
<path d="M39.5502 31.3995C39.5502 30.3109 39.4593 29.1922 39.2473 28.1036C39.0353 27.0151 38.6718 26.0173 38.1872 25.1404C37.6723 24.2636 37.0059 23.5681 36.1881 23.0239C35.3401 22.4796 34.3102 22.2075 33.0381 22.2075C31.1905 22.2075 29.7064 23.0239 28.616 24.6566C27.4953 26.2894 26.9501 28.4967 26.9501 31.3088C26.9501 34.3324 27.465 36.6909 28.5251 38.3539C29.5852 40.017 31.0997 40.8334 33.0684 40.8334C33.9771 40.8334 34.8252 40.6217 35.643 40.1682C36.4607 39.7146 37.1574 39.0796 37.7329 38.2632C38.3083 37.4468 38.7627 36.449 39.1261 35.3C39.3685 34.0905 39.5502 32.8206 39.5502 31.3995ZM39.4593 42.5569L39.429 38.6563C39.429 38.6563 39.0958 39.261 38.9141 39.5332C38.3992 40.3193 37.7934 41.0148 37.0665 41.5893C36.3699 42.1638 35.5521 42.6173 34.704 42.9802C33.8256 43.3128 32.917 43.4942 31.9477 43.4942C30.4939 43.4942 29.1915 43.1918 28.0102 42.5871C26.8592 41.9824 25.8597 41.166 25.0116 40.1077C24.1636 39.0494 23.5275 37.7794 23.0732 36.2978C22.6188 34.8162 22.4068 33.2137 22.4068 31.4902C22.4068 29.8271 22.6794 28.2548 23.1943 26.8337C23.7092 25.4126 24.4362 24.1426 25.3145 23.1146C26.2232 22.0563 27.3136 21.2399 28.5554 20.6654C29.8275 20.0909 31.1905 19.7885 32.6747 19.7885C34.2194 19.7885 35.5824 20.2118 36.7939 20.9375C38.3689 21.8749 39.4593 23.7495 39.4593 23.7495V10.6267C39.4593 10.2639 39.3987 10.0522 39.2776 9.96153C39.1564 9.87082 38.9141 9.78011 38.6112 9.71963L35.3098 9.32655V7.69377L43.2454 6.81689L43.5483 7.24021V40.3496L47.3646 40.7729V42.4057L40.3983 43.1918L39.4593 42.5569Z" fill="#415464"/>
<path d="M54.1796 31.7321C54.1796 32.8508 54.2705 33.9696 54.4825 35.0884C54.6945 36.2071 55.058 37.2049 55.5729 38.0818C56.0878 38.9587 56.7541 39.6844 57.5719 40.2286C58.3897 40.7729 59.4498 41.045 60.6916 41.045C62.5998 41.045 64.084 40.1984 65.1744 38.5051C66.2648 36.8119 66.81 34.5139 66.81 31.6111C66.81 28.7991 66.295 26.5616 65.2652 24.8985C64.2354 23.2355 62.7513 22.4191 60.8128 22.4191C59.8738 22.4191 58.9955 22.6308 58.208 23.0843C57.3902 23.5379 56.6936 24.1728 56.0878 24.959C55.482 25.7754 55.0277 26.743 54.6945 27.892C54.3613 29.0712 54.1796 30.3412 54.1796 31.7321ZM54.3007 20.3932V24.5659C54.3007 24.5659 54.5733 24.0519 54.7248 23.81C55.2397 23.0238 55.8758 22.3284 56.6027 21.7237C57.3296 21.1189 58.1474 20.6654 59.0561 20.3025C59.9647 19.9397 60.9037 19.7583 61.8729 19.7583C63.3268 19.7583 64.6292 20.0606 65.8104 20.6351C66.9614 21.2096 67.9609 22.026 68.7787 23.1146C69.5965 24.1728 70.2326 25.4428 70.6869 26.9244C71.1412 28.406 71.3532 30.0388 71.3532 31.8228C71.3532 33.4556 71.1109 34.9976 70.596 36.449C70.0811 37.8701 69.4148 39.1099 68.5061 40.1379C67.6277 41.166 66.5374 41.9824 65.2955 42.5871C64.0234 43.1918 62.6604 43.4942 61.1157 43.4942C59.571 43.4942 58.208 43.0709 56.9661 42.3452C55.4214 41.4683 54.2705 39.5936 54.2705 39.5936V43.1314V51.2953L58.3291 51.6884V53.3816H46.6983V51.6884L49.3031 51.386C49.6363 51.3558 49.8483 51.2953 49.9695 51.1744C50.0906 51.0534 50.1512 50.8417 50.1512 50.4789V23.5681C50.1512 23.2053 50.0906 22.9936 49.9695 22.8727C49.8483 22.7517 49.606 22.6912 49.3031 22.661L46.5469 22.3586V20.7561L53.6344 19.9699L54.3007 20.3932Z" fill="#415464"/>
</g>
<defs>
<clipPath id="clip0_1_40">
<rect width="100" height="53" fill="white"/>
</clipPath>
</defs>
</svg>
